<svg xmlns="http://www.w3.org/2000/svg" width="48" height="64" viewBox="0 0 48 64">
  <defs>
    <linearGradient id="hero_body" x1="0" x2="0" y1="0" y2="1">
      <stop offset="0%" stop-color="#00ffd1"/>
      <stop offset="100%" stop-color="#0066ff"/>
    </linearGradient>
    <linearGradient id="hero_core" x1="0" x2="1" y1="0" y2="1">
      <stop offset="0%" stop-color="#ffffff"/>
      <stop offset="100%" stop-color="#7fffe8"/>
    </linearGradient>
  </defs>
  <rect x="10" y="8" width="28" height="40" rx="6" fill="url(#hero_body)" stroke="#0ff" stroke-width="2"/>
  <rect x="18" y="18" width="12" height="12" rx="3" fill="url(#hero_core)" stroke="#003366" stroke-width="1.5"/>
  <path d="M12 30 L8 52 L18 52 L16 34 Z" fill="#00a8ff" opacity="0.8"/>
  <path d="M36 30 L40 52 L30 52 L32 34 Z" fill="#00a8ff" opacity="0.8"/>
  <rect x="16" y="6" width="16" height="6" rx="3" fill="#0ff" opacity="0.85"/>
  <rect x="18" y="12" width="12" height="2" rx="1" fill="#e8fff6"/>
  <rect x="15" y="22" width="6" height="3" rx="1" fill="#000"/>
  <rect x="27" y="22" width="6" height="3" rx="1" fill="#000"/>
  <path d="M18 26 Q24 30 30 26" stroke="#002244" stroke-width="2" fill="none" opacity="0.9"/>
  <path d="M6 44 L12 40 L10 48 Z" fill="#00ff9d" opacity="0.6"/>
  <path d="M42 44 L36 40 L38 48 Z" fill="#00ff9d" opacity="0.6"/>
</svg>

